<mxfile host="65bd71144e">
    <diagram id="9SesTnKpwH0KecWY--TF" name="Page-1">
        <mxGraphModel dx="536" dy="357" grid="1" gridSize="10" guides="1" tooltips="1" connect="1" arrows="1" fold="1" page="1" pageScale="1" pageWidth="827" pageHeight="1169" math="0" shadow="0">
            <root>
                <mxCell id="0"/>
                <mxCell id="1" parent="0"/>
                <mxCell id="5" value="1,n" style="edgeStyle=orthogonalEdgeStyle;html=1;fontFamily=Helvetica;" edge="1" parent="1" source="2">
                    <mxGeometry relative="1" as="geometry">
                        <mxPoint x="130" y="90" as="targetPoint"/>
                        <Array as="points">
                            <mxPoint x="130" y="130"/>
                            <mxPoint x="130" y="130"/>
                        </Array>
                    </mxGeometry>
                </mxCell>
                <mxCell id="2" value="Produto&amp;nbsp;" style="whiteSpace=wrap;html=1;fillColor=#0050ef;fontColor=#ffffff;strokeColor=#001DBC;" vertex="1" parent="1">
                    <mxGeometry x="70" y="170" width="130" height="20" as="geometry"/>
                </mxCell>
                <mxCell id="3" value="Fornecedores" style="whiteSpace=wrap;html=1;fillColor=#0050ef;fontColor=#ffffff;strokeColor=#001DBC;" vertex="1" parent="1">
                    <mxGeometry x="70" y="20" width="120" height="60" as="geometry"/>
                </mxCell>
                <mxCell id="6" value="Cliente" style="whiteSpace=wrap;html=1;fillColor=#0050ef;fontColor=#ffffff;strokeColor=#001DBC;" vertex="1" parent="1">
                    <mxGeometry x="270" y="60" width="120" height="20" as="geometry"/>
                </mxCell>
                <mxCell id="7" value="- id_cliente&lt;br&gt;- nome&lt;br&gt;- telefone&lt;br&gt;- endereco" style="whiteSpace=wrap;html=1;fontFamily=Helvetica;fillColor=#a20025;fontColor=#ffffff;strokeColor=#6F0000;" vertex="1" parent="1">
                    <mxGeometry x="270" y="80" width="120" height="60" as="geometry"/>
                </mxCell>
                <mxCell id="8" value="+ id_produto&lt;br&gt;&amp;nbsp;+ nome&lt;br&gt;+ categorias&lt;br&gt;+ quantidade_estoque" style="whiteSpace=wrap;html=1;fontFamily=Helvetica;fillColor=#a20025;fontColor=#ffffff;strokeColor=#6F0000;" vertex="1" parent="1">
                    <mxGeometry x="70" y="190" width="130" height="90" as="geometry"/>
                </mxCell>
                <mxCell id="10" value="Transação" style="whiteSpace=wrap;html=1;fillColor=#0050ef;fontColor=#ffffff;strokeColor=#001DBC;" vertex="1" parent="1">
                    <mxGeometry x="270" y="170" width="130" height="20" as="geometry"/>
                </mxCell>
                <mxCell id="11" value="-&amp;nbsp; id_transacao&lt;br&gt;&amp;nbsp;-&amp;nbsp; data_compra&lt;br&gt;- cliente&lt;br&gt;- quantidade_produto" style="whiteSpace=wrap;html=1;fontFamily=Helvetica;fillColor=#a20025;fontColor=#ffffff;strokeColor=#6F0000;" vertex="1" parent="1">
                    <mxGeometry x="270" y="190" width="130" height="90" as="geometry"/>
                </mxCell>
            </root>
        </mxGraphModel>
    </diagram>
</mxfile>